<svg xmlns="http://www.w3.org/2000/svg" viewBox="0 0 300 72" role="img" aria-label="GoFluent">
  <title>GoFluent</title>
  <g transform="translate(4 4)">
    <rect width="64" height="64" rx="15" fill="#101a3a"/>
    <circle cx="9" cy="10" r="1" fill="#fff" fill-opacity=".85"/>
    <circle cx="55" cy="8" r="1.2" fill="#fff" fill-opacity=".9"/>
    <circle cx="58" cy="30" r=".8" fill="#fff" fill-opacity=".7"/>
    <circle cx="6" cy="34" r=".8" fill="#fff" fill-opacity=".7"/>
    <circle cx="14" cy="56" r="1" fill="#fff" fill-opacity=".6"/>
    <path d="M50 14l.9 2.1 2.1.9-2.1.9-.9 2.1-.9-2.1-2.1-.9 2.1-.9z" fill="#ffd84d"/>
    <rect x="15" y="52" width="34" height="9" rx="4.5" fill="#e8edf5"/>
    <rect x="15" y="55.2" width="34" height="2.2" fill="#f08a3a"/>
    <circle cx="32" cy="36" r="22" fill="#9cc8ff" fill-opacity=".16"/>
    <g transform="translate(32 37.5) scale(.72) translate(-32 -38)">
      <ellipse cx="13.5" cy="25" rx="4.5" ry="4" fill="#8a5a3b"/>
      <ellipse cx="50.5" cy="25" rx="4.5" ry="4" fill="#8a5a3b"/>
      <rect x="7" y="22" width="50" height="32" rx="13" fill="#a9714b"/>
      <rect x="14" y="35" width="36" height="17" rx="8" fill="#bd8a62"/>
      <rect x="22.5" y="32" width="19" height="10" rx="5" fill="#4a2c1a"/>
      <ellipse cx="28" cy="36.5" rx="1.6" ry="1.9" fill="#a9714b" fill-opacity=".55"/>
      <ellipse cx="36" cy="36.5" rx="1.6" ry="1.9" fill="#a9714b" fill-opacity=".55"/>
      <path d="M28 47.5q4 2.4 8 0" fill="none" stroke="#4a2c1a" stroke-width="2" stroke-linecap="round"/>
      <path d="M13.5 30.5q2.8-2.8 5.6 0" fill="none" stroke="#3a2314" stroke-width="2.4" stroke-linecap="round"/>
      <path d="M44.9 30.5q2.8-2.8 5.6 0" fill="none" stroke="#3a2314" stroke-width="2.4" stroke-linecap="round"/>
    </g>
    <circle cx="32" cy="36" r="22" fill="none" stroke="#dfe9f7" stroke-width="2.6"/>
    <path d="M17.5 27.5a17 17 0 0 1 9-8.5" fill="none" stroke="#fff" stroke-opacity=".7" stroke-width="2.2" stroke-linecap="round"/>
    <circle cx="32" cy="12" r="5.6" fill="#f08a3a"/>
    <path d="M32 6.7q1-2.6 4.2-2.9q-.5 2.7-4.2 2.9z" fill="#58d6a0"/>
    <path d="M29.4 10.4q1.2-1.5 3-1.3" fill="none" stroke="#fff" stroke-opacity=".55" stroke-width="1.3" stroke-linecap="round"/>
  </g>
  <text x="84" y="49" font-family="Geist, Inter, 'Segoe UI', system-ui, sans-serif" font-size="38" font-weight="700" letter-spacing="-0.5" fill="#eaf0ff">Go<tspan fill="#f2c26b">Fluent</tspan></text>
</svg>
